<svg width="1033" height="1033" viewBox="0 0 1033 1033" fill="none" xmlns="http://www.w3.org/2000/svg">
<path d="M44.9122 28.7717C84.6429 -9.59038 149.059 -9.5905 188.789 28.7717L620.968 446.066C628.438 453.278 634.503 461.334 639.164 469.915C660.283 507.202 654.495 554.913 621.799 586.484L189.62 1003.78C149.89 1042.14 85.4739 1042.14 45.7433 1003.78L30.629 989.184C-9.10146 950.822 -9.10155 888.624 30.629 850.262L326.096 564.969C348.88 538.785 350.62 501.329 331.317 473.422L29.798 182.287C-9.93266 143.925 -9.93266 81.7277 29.798 43.3654L44.9122 28.7717ZM426.174 28.7717C465.905 -9.59056 530.321 -9.59056 570.052 28.7717L1002.23 446.066C1009.71 453.286 1015.78 461.351 1020.44 469.942C1041.54 507.224 1035.75 554.921 1003.06 586.484L570.883 1003.78C531.152 1042.14 466.736 1042.14 427.005 1003.78L411.891 989.184C372.161 950.822 372.16 888.624 411.891 850.262L717.603 555.078C732.557 528.567 730.065 495.32 710.127 471.055L411.06 182.287C371.329 143.925 371.329 81.7276 411.06 43.3654L426.174 28.7717Z" fill="url(#paint0_linear_150_137)"/>
<defs>
<linearGradient id="paint0_linear_150_137" x1="1032.86" y1="516.275" x2="0" y2="516.275" gradientUnits="userSpaceOnUse">
<stop stop-color="#D614B2"/>
<stop offset="1" stop-color="#1C09C0"/>
</linearGradient>
</defs>
</svg>
